<svg width="201" height="228" viewBox="0 0 67 76" fill="none" xmlns="http://www.w3.org/2000/svg">
<g clip-path="url(#clip0_134_138)">
<g opacity="0.1" filter="url(#filter0_f_134_138)">
<path d="M-3.27344 -3.2373C-1.93685 -2.30997 -0.641235 -1.34289 0.612802 -0.361226H193.75C195.039 -1.34434 196.349 -2.30868 197.726 -3.2373H-3.27344ZM48.6937 46.8694C41.0418 46.8694 34.851 49.1328 30.0759 53.6551C26.0529 57.4552 24.0206 61.9097 24.0206 67.0469C24.0206 67.5773 24.0221 68.0998 24.0659 68.6197C24.386 64.0331 26.4 60.0035 30.076 56.5312C34.8511 52.0089 41.0419 49.7455 48.6938 49.7455C52.6969 49.7455 56.4636 50.3821 59.9458 51.6329C62.2934 52.4772 64.5913 53.8232 66.8597 55.6324L68.5769 54.1944C65.7623 51.6229 62.8848 49.8139 59.9458 48.7568C56.4636 47.5061 52.6968 46.8694 48.6937 46.8694ZM102.649 46.8694C98.1897 46.8694 93.9977 47.7812 90.1319 49.6106C86.2649 51.4401 83.304 53.8367 81.2297 56.8458C79.1565 59.8548 78.1116 63.3116 78.1116 67.1817C78.1116 67.6394 78.1303 68.085 78.1569 68.5299C78.3976 65.2703 79.4323 62.3307 81.2298 59.7219C83.3041 56.7128 86.265 54.3162 90.132 52.4867C93.9978 50.6572 98.1898 49.7455 102.649 49.7455C106.442 49.7455 110.073 50.4166 113.585 51.7677C116.345 52.8297 118.789 54.2738 120.951 56.0369L122.668 54.6438C120.124 52.1539 117.096 50.2427 113.585 48.8916C110.073 47.5405 106.442 46.8694 102.649 46.8694ZM150.64 46.8694C146.179 46.8694 142.033 47.7812 138.168 49.6106C134.302 51.4401 131.34 53.8367 129.265 56.8458C127.191 59.8548 126.147 63.3116 126.147 67.1817C126.147 67.6394 126.166 68.085 126.193 68.5299C126.433 65.2703 127.467 62.3307 129.266 59.7219C131.34 56.7128 134.302 54.3162 138.168 52.4867C142.034 50.6572 146.179 49.7455 150.64 49.7455C154.433 49.7455 158.109 50.4166 161.621 51.7677C164.381 52.8297 166.825 54.2738 168.986 56.0369L170.704 54.6438C168.161 52.1539 165.132 50.2427 161.621 48.8916C158.109 47.5405 154.433 46.8694 150.64 46.8694ZM135.23 66.8671C134.98 67.7903 134.847 68.7336 134.824 69.7432H149.872V66.8671H135.23ZM48.6485 66.957V69.8331H71.7852C71.8153 69.4288 71.8305 69.029 71.8305 68.6197L71.7852 66.957H48.6485ZM32.968 68.6647C32.9207 69.0999 32.8776 69.5601 32.8776 70.0128C32.8776 73.7569 34.4571 76.938 37.6225 79.5398C40.7879 82.1405 44.6827 83.4495 49.3264 83.4495C52.3451 83.4495 54.8913 82.9051 56.9633 81.8317C59.0352 80.7583 60.7086 79.0866 61.9792 76.7986H59.8554C58.9968 77.6777 58.0361 78.3999 56.9633 78.9556C54.8913 80.0291 52.3451 80.5734 49.3264 80.5734C44.6827 80.5734 40.7879 79.2645 37.6225 76.6638C34.8925 74.4198 33.3429 71.7599 32.968 68.6647ZM86.9235 68.7097C86.8765 69.156 86.8331 69.5938 86.8331 70.0579C86.8331 72.6445 87.4874 74.9279 88.8214 76.9335C90.1565 78.9391 92.0297 80.5075 94.47 81.6521C96.9092 82.7955 99.6216 83.3597 102.604 83.3597C105.148 83.3597 107.502 82.9917 109.608 82.1913C111.714 81.3898 114 79.8991 116.522 77.7873L120.725 81.5172C121.305 81.0804 121.895 80.6578 122.487 80.1691L116.522 74.9112C114 77.023 111.714 78.5137 109.608 79.3152C107.502 80.1156 105.148 80.4837 102.604 80.4837C99.6216 80.4837 96.9092 79.9194 94.47 78.776C92.0297 77.6314 90.1565 76.0631 88.8214 74.0574C87.7571 72.4573 87.1354 70.6763 86.9235 68.7097ZM164.558 74.9112C162.034 77.023 159.705 78.5137 157.599 79.3152C155.493 80.1156 153.184 80.4837 150.64 80.4837C147.659 80.4837 144.945 79.9194 142.506 78.776C141.359 78.238 140.333 77.6151 139.433 76.8885H136.812C136.824 76.9057 136.846 76.9166 136.857 76.9336C138.191 78.9392 140.067 80.5076 142.506 81.6521C144.945 82.7956 147.659 83.3598 150.64 83.3598C153.185 83.3598 155.493 82.9918 157.599 82.1914C159.705 81.3898 162.034 79.8992 164.558 77.7874L168.715 81.5173C169.296 81.0805 169.886 80.6578 170.478 80.1692L164.558 74.9112ZM13.7176 97.2906C13.2412 97.2906 12.8138 97.8635 12.8138 98.5939V101.245C12.8138 101.29 12.8109 101.337 12.8138 101.38C12.8491 100.696 13.2622 100.167 13.7176 100.167H63.7868C64.2105 100.167 64.5724 100.633 64.6454 101.245V98.5938C64.6454 97.8634 64.2643 97.2906 63.7868 97.2906L13.7176 97.2906ZM131.48 97.2906C131.002 97.2906 130.621 97.8635 130.621 98.5939V101.245C130.694 100.633 131.056 100.167 131.48 100.167H181.549C182.005 100.167 182.417 100.696 182.453 101.38C182.456 101.337 182.453 101.29 182.453 101.245V98.594C182.453 97.8636 182.026 97.2907 181.549 97.2907L131.48 97.2906ZM38.2099 107.132C37.3675 107.132 36.6735 107.984 36.6735 109.11V111.986C36.6735 110.86 37.3675 110.008 38.2099 110.008H47.3381C48.1804 110.008 48.8745 110.86 48.8745 111.986V109.11C48.8745 107.984 48.1804 107.132 47.3381 107.132H38.2099ZM56.5114 107.132C55.6702 107.132 54.975 107.984 54.975 109.11V111.986C54.975 110.86 55.6702 110.008 56.5114 110.008H71.74C72.5812 110.008 73.2764 110.86 73.2764 111.986V109.11C73.2764 107.984 72.5812 107.132 71.74 107.132H56.5114ZM86.9687 107.132C86.1274 107.132 85.4774 107.984 85.4774 109.11V111.986C85.4774 110.86 86.1274 110.008 86.9687 110.008H108.343C109.184 110.008 109.834 110.86 109.834 111.986V109.11C109.834 107.984 109.184 107.132 108.343 107.132H86.9687ZM123.572 107.132C122.729 107.132 122.035 107.984 122.035 109.11V111.986C122.035 110.86 122.729 110.008 123.572 110.008H138.8C139.643 110.008 140.337 110.86 140.337 111.986V109.11C140.337 107.984 139.643 107.132 138.8 107.132H123.572ZM147.974 107.132C147.132 107.132 146.437 107.984 146.437 109.11V111.986C146.437 110.86 147.132 110.008 147.974 110.008H157.057C157.898 110.008 158.593 110.86 158.593 111.986V109.11C158.593 107.984 157.898 107.132 157.057 107.132H147.974Z" fill="white"/>
</g>
<path d="M71.8355 57.4331L65.6819 62.5843C61.788 59.1027 57.2487 57.3619 52.0629 57.3619C47.5447 57.3619 43.7598 58.6279 40.7094 61.1597C37.6589 63.6904 36.1339 66.7659 36.1339 70.3875C36.1339 74.1316 37.7164 77.304 40.8817 79.9059C44.0472 82.5066 47.9518 83.8074 52.5954 83.8074C55.6142 83.8074 58.1601 83.2708 60.2321 82.1973C62.304 81.124 63.9759 79.4438 65.2465 77.1558H51.9432V70.2335H75.0514L75.113 71.8693C75.113 75.2645 74.0711 78.4824 71.9862 81.5253C69.9014 84.5682 67.2018 86.8912 63.8873 88.4908C60.5718 90.0916 56.6837 90.8919 52.223 90.8919C47.4491 90.8919 43.1901 90.0169 39.4487 88.2668C35.7072 86.5155 32.7473 84.0221 30.5686 80.7844C28.3887 77.5467 27.2998 74.0546 27.2998 70.3058C27.2998 65.1686 29.312 60.6988 33.3351 56.8987C38.1101 52.3764 44.3235 50.1152 51.9754 50.1152C55.9786 50.1152 59.7212 50.7406 63.2034 51.9914C66.1424 53.0484 69.0208 54.8616 71.8355 57.4331Z" fill="white"/>
<path d="M136.738 77.2538H153.124V70.1152H136.738V77.2538Z" fill="white"/>
<path d="M173.959 57.9033L167.829 62.8235C163.66 59.1109 158.968 57.2546 153.754 57.2546C149.354 57.2546 145.648 58.5217 142.635 61.0558C139.622 63.5889 138.116 66.7122 138.116 70.4248C138.116 73.0115 138.784 75.3077 140.117 77.3133C141.451 79.319 143.339 80.8941 145.778 82.0387C148.217 83.1821 150.929 83.7538 153.91 83.7538C156.455 83.7538 158.78 83.3536 160.886 82.5532C162.992 81.7516 165.306 80.2955 167.829 78.1837L173.772 83.4271C170.375 86.232 167.165 88.1781 164.143 89.2632C161.121 90.3494 157.671 90.8919 153.795 90.8919C146.646 90.8919 140.795 88.9785 136.241 85.1516C131.687 81.3246 129.41 76.4196 129.41 70.4377C129.41 66.5676 130.447 63.128 132.522 60.1189C134.596 57.1099 137.565 54.69 141.431 52.8606C145.297 51.0311 149.46 50.1152 153.92 50.1152C157.714 50.1152 161.366 50.7908 164.877 52.1419C168.389 53.493 171.417 55.4134 173.959 57.9033Z" fill="white"/>
<path d="M125.942 57.9033L119.81 62.8235C115.641 59.1109 110.949 57.2546 105.736 57.2546C101.335 57.2546 97.6291 58.5217 94.6173 61.0558C91.6045 63.5889 90.098 66.7122 90.098 70.4248C90.098 73.0115 90.7644 75.3077 92.0984 77.3133C93.4335 79.319 95.3202 80.8941 97.7605 82.0387C100.2 83.1821 102.91 83.7538 105.892 83.7538C108.436 83.7538 110.761 83.3536 112.867 82.5532C114.973 81.7516 117.288 80.2955 119.81 78.1837L125.753 83.4271C122.356 86.232 119.146 88.1781 116.125 89.2632C113.103 90.3494 109.654 90.8919 105.777 90.8919C98.6286 90.8919 92.7766 88.9785 88.2233 85.1516C83.67 81.3246 81.3926 76.4196 81.3926 70.4377C81.3926 66.5676 82.4298 63.128 84.5029 60.1189C86.5772 57.1099 89.5466 54.69 93.4136 52.8606C97.2794 51.0311 101.442 50.1152 105.902 50.1152C109.695 50.1152 113.348 50.7908 116.86 52.1419C120.371 53.493 123.398 55.4134 125.942 57.9033Z" fill="white"/>
<path fill-rule="evenodd" clip-rule="evenodd" d="M0 0C7.60613 5.27719 13.861 11.4614 18.7828 18.4968C19.3498 19.3077 19.9191 20.1456 20.4295 20.9834C21.8562 23.3402 23.0419 25.8257 24.0274 28.4427C25.7533 33.0222 26.7597 37.9851 27.1375 43.3615H33.5407C33.9891 39.8437 36.6699 37.3489 41.5905 35.8415C46.5122 34.334 58.2816 32.4453 68.1181 32.4453H132.516C143.871 32.4453 154.122 34.334 159.044 35.8415C163.965 37.3489 166.788 39.8437 167.459 43.3615H173.863C174.115 37.9851 175.058 33.0222 176.729 28.4427C177.683 25.8257 178.849 23.346 180.266 20.9834C180.774 20.1398 181.285 19.3077 181.851 18.4968C186.772 11.4614 193.171 5.27719 201 0H0Z" fill="white"/>
<path d="M41.4678 110.375C40.6255 110.375 39.9434 111.25 39.9434 112.376V225.998C39.9434 227.126 40.6251 228 41.4678 228H50.6153C51.4577 228 52.14 227.126 52.14 225.998V112.376C52.14 111.25 51.4581 110.375 50.6153 110.375H41.4678ZM59.7628 110.375C58.9216 110.375 58.2383 111.25 58.2383 112.376V225.998C58.2383 227.126 58.9216 228 59.7628 228H75.0086C75.8498 228 76.5333 227.126 76.5333 225.998V112.376C76.5333 111.25 75.8498 110.375 75.0086 110.375H59.7628ZM90.2543 110.375C89.4131 110.375 88.7296 111.25 88.7296 112.376V225.998C88.7296 227.126 89.4131 228 90.2543 228H111.598C112.44 228 113.123 227.126 113.123 225.998V112.376C113.123 111.25 112.44 110.375 111.598 110.375H90.2543ZM126.844 110.375C126.002 110.375 125.32 111.25 125.32 112.376V225.998C125.32 227.126 126.001 228 126.844 228H142.09C142.932 228 143.614 227.126 143.614 225.998V112.376C143.614 111.25 142.933 110.375 142.09 110.375H126.844ZM151.237 110.375C150.396 110.375 149.713 111.25 149.713 112.376V225.998C149.713 227.126 150.396 228 151.237 228H160.324C161.165 228 161.848 227.126 161.848 225.998V112.376C161.848 111.25 161.165 110.375 160.324 110.375H151.237Z" fill="white"/>
<path d="M16.1084 104.503V101.857C16.1084 101.126 16.496 100.534 16.972 100.534H67.0589C67.5365 100.534 67.9224 101.126 67.9224 101.857V104.503C67.9224 105.235 67.5364 105.826 67.0589 105.826H16.972C16.4958 105.826 16.1084 105.235 16.1084 104.503Z" fill="white"/>
<path d="M133.893 104.503V101.857C133.893 101.126 134.279 100.534 134.756 100.534H184.843C185.32 100.534 185.706 101.126 185.706 101.857V104.503C185.706 105.235 185.32 105.826 184.843 105.826H134.756C134.278 105.826 133.893 105.235 133.893 104.503Z" fill="white"/>
</g>
<defs>
<filter id="filter0_f_134_138" x="-5.60517" y="-5.56904" width="205.663" height="119.887" filterUnits="userSpaceOnUse" color-interpolation-filters="sRGB">
<feFlood flood-opacity="0" result="BackgroundImageFix"/>
<feBlend mode="normal" in="SourceGraphic" in2="BackgroundImageFix" result="shape"/>
<feGaussianBlur stdDeviation="1.16587" result="effect1_foregroundBlur_134_138"/>
</filter>
<clipPath id="clip0_134_138">
<rect width="201" height="228" fill="white"/>
</clipPath>
</defs>
</svg>
